<svg width="2048" height="2048" xmlns="http://www.w3.org/2000/svg"><path stroke="orange" stroke-width="5" d="M1112 1599 1111 1600 1111 1603 1112 1604 1112 1606 1113 1607 1113 1608 1115 1610 1115 1611 1118 1614 1118 1615 1127 1624 1128 1624 1133 1629 1134 1629 1137 1632 1138 1632 1141 1635 1142 1635 1144 1637 1145 1637 1147 1639 1148 1639 1149 1640 1150 1640 1152 1642 1153 1642 1154 1643 1155 1643 1157 1645 1158 1645 1159 1646 1160 1646 1161 1647 1162 1647 1163 1648 1164 1648 1165 1649 1166 1649 1167 1650 1168 1650 1169 1651 1170 1651 1171 1652 1173 1652 1174 1653 1175 1653 1176 1654 1178 1654 1179 1655 1180 1655 1181 1656 1182 1656 1183 1657 1185 1657 1186 1658 1188 1658 1189 1659 1190 1659 1191 1660 1193 1660 1194 1661 1196 1661 1197 1662 1200 1662 1201 1663 1203 1663 1204 1664 1206 1664 1207 1665 1210 1665 1211 1666 1214 1666 1215 1667 1218 1667 1219 1668 1222 1668 1223 1669 1226 1669 1227 1670 1230 1670 1231 1671 1235 1671 1236 1672 1240 1672 1241 1673 1245 1673 1246 1674 1250 1674 1251 1675 1255 1675 1256 1676 1260 1676 1261 1677 1265 1677 1266 1678 1271 1678 1272 1679 1278 1679 1279 1680 1284 1680 1285 1681 1291 1681 1292 1682 1299 1682 1300 1683 1306 1683 1307 1682 1308 1682 1309 1683 1306 1686 1305 1686 1302 1689 1301 1689 1300 1690 1299 1690 1297 1692 1296 1692 1295 1693 1294 1693 1292 1695 1291 1695 1291 1696 1290 1697 1289 1697 1288 1698 1287 1698 1286 1699 1285 1699 1284 1700 1283 1700 1282 1701 1281 1701 1280 1702 1279 1702 1278 1703 1277 1703 1276 1704 1274 1704 1273 1705 1272 1705 1271 1706 1270 1706 1269 1707 1268 1707 1267 1708 1266 1708 1265 1709 1263 1709 1262 1710 1261 1710 1260 1711 1259 1711 1258 1712 1257 1712 1256 1713 1254 1713 1253 1714 1252 1714 1251 1715 1249 1715 1248 1716 1246 1716 1245 1717 1244 1717 1243 1718 1241 1718 1240 1719 1239 1719 1238 1720 1236 1720 1235 1721 1233 1721 1232 1722 1230 1722 1229 1723 1227 1723 1226 1724 1224 1724 1223 1725 1220 1725 1219 1726 1216 1726 1215 1727 1213 1727 1212 1728 1209 1728 1208 1729 1204 1729 1203 1730 1199 1730 1198 1731 1194 1731 1193 1732 1188 1732 1187 1733 1183 1733 1182 1734 1178 1734 1177 1735 1173 1735 1172 1736 1167 1736 1166 1737 1161 1737 1160 1738 1154 1738 1153 1739 1148 1739 1147 1740 1142 1740 1141 1741 1134 1741 1133 1742 1125 1742 1124 1743 1112 1743 1111 1744 1071 1744 1070 1743 1056 1743 1055 1742 1047 1742 1046 1741 1038 1741 1037 1740 1031 1740 1030 1739 1025 1739 1024 1738 1019 1738 1018 1737 1014 1737 1013 1736 1009 1736 1008 1735 1001 1735 1000 1734 998 1734 997 1733 994 1733 993 1732 990 1732 989 1731 986 1731 985 1730 981 1730 980 1729 977 1729 976 1728 974 1728 973 1727 970 1727 969 1726 967 1726 966 1725 963 1725 962 1724 961 1724 960 1723 958 1723 957 1722 954 1722 953 1721 951 1721 950 1720 949 1720 948 1719 946 1719 945 1718 943 1718 942 1717 940 1717 939 1716 938 1716 937 1715 935 1715 934 1714 933 1714 932 1713 929 1713 928 1712 926 1712 924 1710 923 1710 922 1709 921 1709 920 1708 918 1708 917 1707 916 1707 915 1706 914 1706 913 1705 912 1705 911 1704 910 1704 909 1703 908 1703 907 1702 905 1702 903 1700 901 1700 900 1699 899 1699 897 1697 896 1697 895 1696 894 1696 893 1695 892 1695 891 1694 890 1694 889 1693 888 1693 887 1692 886 1692 885 1691 884 1691 883 1690 882 1690 880 1688 879 1688 878 1687 877 1687 875 1685 874 1685 873 1684 872 1684 871 1683 870 1683 868 1681 867 1681 866 1680 865 1680 864 1679 863 1679 862 1678 861 1678 860 1677 859 1677 858 1676 857 1676 855 1674 854 1674 853 1673 852 1673 851 1672 850 1672 849 1671 848 1671 847 1670 846 1670 844 1668 843 1668 841 1666 840 1666 839 1665 838 1665 835 1662 834 1662 832 1660 831 1660 829 1658 828 1658 826 1656 825 1656 824 1655 823 1655 821 1653 820 1653 818 1651 817 1651 815 1649 814 1649 812 1647 811 1647 809 1645 808 1645 806 1643 805 1643 804 1642 804 1641 803 1640 802 1640 801 1639 800 1639 798 1637 797 1637 796 1636 795 1636 793 1634 792 1634 791 1633 791 1632 792 1631 793 1631 794 1630 806 1630 807 1629 816 1629 817 1628 824 1628 825 1627 831 1627 832 1626 838 1626 839 1625 843 1625 844 1624 847 1624 848 1623 851 1623 852 1622 854 1622 855 1621 857 1621 858 1620 859 1620 862 1617 862 1614 861 1613 860 1613 859 1612 856 1612 855 1613 851 1613 850 1614 846 1614 845 1615 840 1615 839 1616 834 1616 833 1617 827 1617 826 1618 819 1618 818 1619 809 1619 808 1620 799 1620 798 1621 789 1621 788 1622 781 1622 780 1623 778 1623 775 1626 775 1631 778 1634 779 1634 781 1636 782 1636 783 1637 784 1637 786 1639 787 1639 789 1641 790 1641 793 1644 794 1644 796 1646 797 1646 800 1649 801 1649 804 1652 805 1652 808 1655 809 1655 811 1657 812 1657 815 1660 816 1660 818 1662 819 1662 821 1664 822 1664 824 1666 825 1666 827 1668 828 1668 829 1669 830 1669 832 1671 833 1671 835 1673 836 1673 837 1674 838 1674 840 1676 841 1676 842 1677 843 1677 845 1679 846 1679 847 1680 848 1680 849 1681 850 1681 851 1682 852 1682 854 1684 855 1684 856 1685 857 1685 858 1686 859 1686 861 1688 862 1688 863 1689 864 1689 865 1690 866 1690 867 1691 868 1691 869 1692 870 1692 871 1693 872 1693 873 1694 874 1694 875 1695 876 1695 878 1697 879 1697 880 1698 882 1698 884 1700 886 1700 888 1702 890 1702 891 1703 892 1703 893 1704 894 1704 895 1705 896 1705 897 1706 898 1706 899 1707 900 1707 901 1708 902 1708 903 1709 904 1709 905 1710 906 1710 907 1711 909 1711 910 1712 911 1712 912 1713 913 1713 914 1714 915 1714 916 1715 917 1715 918 1716 919 1716 920 1717 922 1717 923 1718 925 1718 926 1719 928 1719 929 1720 930 1720 931 1721 933 1721 934 1722 935 1722 936 1723 937 1723 938 1724 940 1724 941 1725 943 1725 944 1726 945 1726 946 1727 948 1727 949 1728 951 1728 952 1729 954 1729 955 1730 957 1730 958 1731 960 1731 961 1732 963 1732 964 1733 966 1733 967 1734 970 1734 971 1735 973 1735 974 1736 977 1736 978 1737 981 1737 982 1738 985 1738 986 1739 989 1739 990 1740 993 1740 994 1741 998 1741 999 1742 1002 1742 1003 1743 1007 1743 1008 1744 1012 1744 1013 1745 1018 1745 1019 1746 1024 1746 1025 1747 1030 1747 1031 1748 1037 1748 1038 1749 1046 1749 1047 1750 1057 1750 1058 1751 1086 1751 1087 1752 1088 1752 1089 1751 1122 1751 1123 1750 1136 1750 1137 1749 1145 1749 1146 1748 1152 1748 1153 1747 1159 1747 1160 1746 1165 1746 1166 1745 1170 1745 1171 1744 1175 1744 1176 1743 1180 1743 1181 1742 1185 1742 1186 1741 1190 1741 1191 1740 1194 1740 1195 1739 1199 1739 1200 1738 1203 1738 1204 1737 1208 1737 1209 1736 1212 1736 1213 1735 1216 1735 1217 1734 1221 1734 1222 1733 1225 1733 1226 1732 1228 1732 1229 1731 1231 1731 1232 1730 1234 1730 1235 1729 1237 1729 1238 1728 1239 1728 1240 1727 1242 1727 1243 1726 1244 1726 1245 1725 1247 1725 1248 1724 1249 1724 1250 1723 1252 1723 1253 1722 1254 1722 1255 1721 1257 1721 1258 1720 1259 1720 1260 1719 1262 1719 1263 1718 1264 1718 1265 1717 1267 1717 1268 1716 1269 1716 1270 1715 1271 1715 1272 1714 1273 1714 1274 1713 1277 1713 1278 1712 1279 1712 1280 1711 1281 1711 1282 1710 1283 1710 1284 1709 1285 1709 1287 1707 1288 1707 1289 1706 1290 1706 1291 1705 1292 1705 1293 1704 1294 1704 1296 1702 1297 1702 1298 1701 1299 1701 1301 1699 1302 1699 1303 1698 1304 1698 1306 1696 1307 1696 1309 1694 1310 1694 1312 1692 1313 1692 1315 1690 1316 1690 1318 1688 1319 1688 1324 1683 1324 1677 1322 1675 1321 1675 1320 1674 1316 1674 1315 1673 1305 1673 1304 1672 1296 1672 1295 1671 1289 1671 1288 1670 1282 1670 1281 1669 1275 1669 1274 1668 1270 1668 1269 1667 1265 1667 1264 1666 1258 1666 1257 1665 1254 1665 1253 1664 1249 1664 1248 1663 1244 1663 1243 1662 1239 1662 1238 1661 1234 1661 1233 1660 1231 1660 1230 1659 1229 1660 1228 1659 1225 1659 1224 1658 1223 1658 1222 1657 1221 1658 1220 1657 1219 1657 1218 1656 1217 1657 1216 1656 1213 1656 1212 1655 1209 1655 1208 1654 1207 1654 1206 1653 1203 1653 1202 1652 1200 1652 1199 1651 1196 1651 1195 1650 1193 1650 1192 1649 1190 1649 1189 1648 1188 1648 1187 1647 1186 1647 1185 1646 1183 1646 1182 1645 1180 1645 1179 1644 1178 1644 1177 1643 1175 1643 1174 1642 1173 1642 1172 1641 1171 1641 1170 1640 1169 1640 1168 1639 1167 1639 1166 1638 1165 1638 1164 1637 1163 1637 1161 1635 1160 1635 1159 1634 1158 1634 1157 1633 1156 1633 1154 1631 1153 1631 1152 1630 1151 1630 1149 1628 1148 1628 1146 1626 1145 1626 1143 1624 1142 1624 1139 1621 1138 1621 1134 1617 1133 1617 1127 1611 1126 1611 1114 1599 " /><path stroke="blue" stroke-width="7" d="M911 1550 910 1551 908 1551 905 1554 905 1556 915 1556 916 1557 919 1557 920 1558 921 1558 922 1559 923 1559 924 1560 925 1560 926 1561 927 1561 931 1565 932 1565 934 1567 934 1568 940 1574 940 1575 942 1577 942 1578 944 1580 944 1581 945 1581 946 1582 949 1582 952 1579 952 1573 951 1572 951 1568 950 1567 950 1564 949 1563 949 1561 948 1560 948 1557 947 1556 947 1554 946 1553 946 1552 945 1551 944 1551 943 1552 943 1554 942 1555 942 1561 941 1562 937 1558 936 1558 933 1555 932 1555 931 1554 930 1554 929 1553 928 1553 927 1552 926 1552 925 1551 922 1551 921 1550 " /><path stroke="orange" stroke-width="1" d="M878 1517 877 1518 876 1518 874 1520 874 1521 873 1522 873 1527 874 1528 874 1529 878 1533 879 1533 880 1534 881 1534 882 1535 887 1535 888 1534 889 1534 891 1532 891 1526 890 1525 890 1524 889 1523 889 1522 885 1518 884 1518 883 1517 " /><path stroke="blue" stroke-width="5" d="M957 1513 956 1514 954 1514 950 1518 950 1521 949 1522 950 1523 950 1525 952 1527 953 1527 954 1528 957 1528 959 1526 960 1526 961 1525 961 1524 962 1523 962 1522 963 1521 963 1517 960 1514 959 1514 958 1513 " /><path stroke="orange" stroke-width="7" d="M322 1219 321 1220 301 1220 300 1221 288 1221 287 1222 278 1222 277 1223 269 1223 268 1224 262 1224 261 1225 256 1225 255 1226 250 1226 249 1227 244 1227 243 1228 239 1228 238 1229 235 1229 234 1230 230 1230 229 1231 226 1231 225 1232 222 1232 221 1233 217 1233 216 1234 214 1234 213 1235 210 1235 209 1236 206 1236 205 1237 202 1237 201 1238 199 1238 198 1239 195 1239 194 1240 192 1240 191 1241 189 1241 188 1242 185 1242 184 1243 182 1243 181 1244 179 1244 178 1245 176 1245 175 1246 172 1246 171 1247 169 1247 168 1248 166 1248 165 1249 163 1249 162 1250 160 1250 159 1251 157 1251 156 1252 154 1252 153 1253 150 1253 149 1254 148 1254 147 1255 145 1255 144 1256 142 1256 141 1257 139 1257 138 1258 136 1258 135 1259 133 1259 132 1260 130 1260 129 1261 127 1261 126 1262 125 1262 124 1263 122 1263 121 1264 119 1264 118 1265 117 1265 116 1266 114 1266 113 1267 111 1267 110 1268 108 1268 107 1269 106 1269 105 1270 103 1270 102 1271 101 1271 100 1272 98 1272 97 1273 96 1273 95 1274 93 1274 92 1275 91 1275 90 1276 88 1276 87 1277 86 1277 85 1278 84 1278 83 1279 82 1279 81 1280 79 1280 78 1281 77 1281 76 1282 75 1282 74 1283 73 1283 72 1284 70 1284 68 1286 67 1286 66 1287 65 1287 64 1288 63 1288 62 1289 61 1289 60 1290 59 1290 58 1291 57 1291 56 1292 55 1292 54 1293 53 1293 51 1295 50 1295 47 1298 46 1298 43 1301 42 1301 40 1303 39 1303 39 1304 33 1310 33 1311 31 1313 31 1315 30 1316 30 1321 33 1324 34 1324 35 1325 38 1325 39 1326 57 1326 58 1327 57 1328 56 1328 55 1329 54 1329 53 1330 52 1330 50 1332 49 1332 47 1334 46 1334 45 1335 45 1336 44 1337 44 1338 43 1339 43 1341 44 1342 44 1344 48 1348 50 1348 51 1349 53 1349 54 1350 57 1350 58 1351 61 1351 62 1352 66 1352 67 1353 72 1353 73 1354 77 1354 78 1355 81 1355 82 1356 76 1362 76 1364 75 1365 75 1367 76 1368 76 1370 80 1374 81 1374 82 1375 83 1375 84 1376 86 1376 87 1377 89 1377 90 1378 94 1378 95 1379 99 1379 100 1380 107 1380 108 1381 116 1381 117 1382 118 1382 119 1383 119 1391 120 1392 120 1393 123 1396 124 1396 125 1397 126 1397 127 1398 131 1398 132 1399 136 1399 137 1398 143 1398 144 1397 147 1397 148 1396 149 1396 150 1395 152 1395 153 1394 154 1394 155 1393 156 1393 158 1395 158 1396 162 1400 163 1400 165 1402 166 1402 167 1403 168 1403 169 1404 170 1404 171 1405 173 1405 174 1406 175 1406 176 1407 177 1407 178 1408 180 1408 181 1409 183 1409 184 1410 185 1410 186 1411 188 1411 189 1412 191 1412 192 1413 194 1413 195 1414 197 1414 198 1415 200 1415 201 1416 204 1416 205 1417 207 1417 208 1418 211 1418 212 1419 215 1419 216 1420 218 1420 219 1421 222 1421 223 1422 226 1422 227 1423 230 1423 231 1424 235 1424 236 1425 239 1425 240 1426 243 1426 244 1427 247 1427 248 1428 251 1428 252 1429 254 1429 255 1430 258 1430 261 1427 261 1424 258 1421 257 1421 256 1420 255 1420 254 1419 252 1419 251 1418 249 1418 248 1417 246 1417 245 1416 242 1416 241 1415 239 1415 238 1414 234 1414 233 1413 231 1413 230 1412 227 1412 226 1411 223 1411 222 1410 219 1410 218 1409 215 1409 214 1408 212 1408 211 1407 208 1407 207 1406 205 1406 204 1405 202 1405 201 1404 198 1404 197 1403 195 1403 194 1402 193 1402 192 1401 190 1401 189 1400 187 1400 186 1399 184 1399 183 1398 182 1398 181 1397 179 1397 178 1396 177 1396 176 1395 175 1395 174 1394 173 1394 172 1393 171 1393 170 1392 169 1392 167 1390 168 1389 168 1387 169 1386 168 1385 168 1383 166 1381 165 1381 164 1380 160 1380 159 1381 158 1381 157 1382 156 1382 155 1383 153 1383 152 1384 151 1384 150 1385 149 1385 148 1386 146 1386 145 1387 142 1387 141 1388 137 1388 136 1389 132 1389 131 1388 130 1388 129 1387 129 1386 130 1385 130 1383 131 1382 131 1379 130 1378 130 1377 129 1376 129 1375 128 1374 127 1374 126 1373 124 1373 123 1372 118 1372 117 1371 109 1371 108 1370 102 1370 101 1369 96 1369 95 1368 92 1368 91 1367 89 1367 88 1366 88 1365 95 1358 95 1356 96 1355 96 1354 95 1353 95 1351 92 1348 91 1348 90 1347 88 1347 87 1346 84 1346 83 1345 80 1345 79 1344 75 1344 74 1343 69 1343 68 1342 64 1342 63 1341 60 1341 58 1339 60 1337 61 1337 62 1336 63 1336 64 1335 65 1335 66 1334 67 1334 69 1332 70 1332 72 1330 73 1330 75 1328 76 1328 79 1325 79 1324 80 1323 80 1322 79 1321 76 1321 75 1320 73 1320 72 1319 68 1319 67 1318 61 1318 60 1317 49 1317 48 1316 40 1316 38 1314 44 1308 45 1308 47 1306 48 1306 48 1305 49 1304 50 1304 51 1303 52 1303 53 1302 54 1302 55 1301 56 1301 57 1300 59 1300 60 1299 61 1299 62 1298 63 1298 64 1297 65 1297 66 1296 68 1296 69 1295 70 1295 71 1294 72 1294 73 1293 74 1293 75 1292 77 1292 78 1291 79 1291 80 1290 81 1290 82 1289 84 1289 85 1288 86 1288 87 1287 88 1287 89 1286 91 1286 92 1285 93 1285 94 1284 96 1284 97 1283 99 1283 100 1282 101 1282 102 1281 103 1281 104 1280 106 1280 107 1279 109 1279 110 1278 112 1278 113 1277 114 1277 115 1276 117 1276 118 1275 119 1275 120 1274 122 1274 123 1273 125 1273 126 1272 128 1272 129 1271 131 1271 132 1270 133 1270 134 1269 136 1269 137 1268 139 1268 140 1267 142 1267 143 1266 145 1266 146 1265 148 1265 149 1264 151 1264 152 1263 154 1263 155 1262 157 1262 158 1261 160 1261 161 1260 163 1260 164 1259 166 1259 167 1258 169 1258 170 1257 172 1257 173 1256 175 1256 176 1255 178 1255 179 1254 182 1254 183 1253 185 1253 186 1252 188 1252 189 1251 191 1251 192 1250 195 1250 196 1249 198 1249 199 1248 201 1248 202 1247 205 1247 206 1246 208 1246 209 1245 212 1245 213 1244 216 1244 217 1243 219 1243 220 1242 223 1242 224 1241 227 1241 228 1240 231 1240 232 1239 236 1239 237 1238 241 1238 242 1237 245 1237 246 1236 251 1236 252 1235 256 1235 257 1234 262 1234 263 1233 269 1233 270 1232 276 1232 277 1231 285 1231 286 1230 294 1230 295 1229 306 1229 307 1228 325 1228 326 1227 384 1227 385 1228 404 1228 405 1229 417 1229 418 1230 427 1230 428 1231 434 1231 435 1232 434 1233 414 1233 428 1233 429 1234 441 1234 441 1233 442 1232 443 1232 444 1233 450 1233 451 1234 456 1234 457 1235 462 1235 463 1236 467 1236 468 1237 472 1237 473 1238 477 1238 478 1239 481 1239 482 1240 485 1240 486 1241 489 1241 490 1242 493 1242 494 1243 497 1243 498 1244 501 1244 502 1245 505 1245 506 1246 508 1246 509 1247 512 1247 513 1248 515 1248 516 1249 519 1249 520 1250 522 1250 523 1251 525 1251 526 1252 528 1252 529 1253 531 1253 532 1254 534 1254 535 1255 537 1255 538 1256 540 1256 541 1257 543 1257 544 1258 546 1258 547 1259 548 1259 549 1260 551 1260 552 1261 554 1261 555 1262 556 1262 557 1263 559 1263 560 1264 561 1264 562 1265 564 1265 565 1266 566 1266 567 1267 569 1267 570 1268 571 1268 572 1269 573 1269 574 1270 576 1270 577 1271 578 1271 579 1272 580 1272 581 1273 582 1273 583 1274 584 1274 585 1275 586 1275 587 1276 588 1276 589 1277 590 1277 591 1278 593 1278 595 1280 596 1280 597 1281 598 1281 599 1282 600 1282 601 1283 602 1283 603 1284 604 1284 605 1285 606 1285 607 1286 608 1286 609 1287 610 1287 612 1289 613 1289 614 1290 615 1290 616 1291 617 1291 619 1293 620 1293 621 1294 622 1294 624 1296 625 1296 626 1297 627 1297 628 1298 629 1298 631 1300 632 1300 634 1302 635 1302 637 1304 638 1304 639 1305 640 1305 642 1307 643 1307 645 1309 646 1309 649 1312 650 1312 652 1314 653 1314 655 1316 656 1316 659 1319 660 1319 663 1322 664 1322 667 1325 668 1325 671 1328 672 1328 676 1332 677 1332 680 1335 681 1335 684 1338 685 1338 688 1341 689 1341 693 1345 694 1345 697 1348 698 1348 702 1352 703 1352 706 1355 707 1355 709 1357 710 1357 713 1360 714 1360 717 1363 718 1363 720 1365 721 1365 724 1368 725 1368 727 1370 728 1370 731 1373 732 1373 735 1376 736 1376 739 1379 740 1379 742 1381 743 1381 745 1383 746 1383 749 1386 750 1386 753 1389 754 1389 757 1392 758 1392 760 1394 761 1394 764 1397 765 1397 768 1400 769 1400 771 1402 772 1402 775 1405 776 1405 779 1408 780 1408 783 1411 784 1411 786 1413 787 1413 791 1417 792 1417 795 1420 796 1420 799 1423 800 1423 803 1426 804 1426 808 1430 809 1430 812 1433 813 1433 816 1436 817 1436 820 1439 821 1439 823 1441 824 1441 827 1444 828 1444 830 1446 831 1446 833 1448 834 1448 835 1449 836 1449 838 1451 839 1451 841 1453 842 1453 843 1454 844 1454 845 1455 846 1455 847 1454 843 1450 842 1450 838 1446 837 1446 831 1440 830 1440 825 1435 824 1435 818 1429 817 1429 813 1425 812 1425 807 1420 806 1420 803 1417 802 1417 798 1413 797 1413 793 1409 792 1409 789 1406 788 1406 785 1403 784 1403 782 1401 781 1401 777 1397 776 1397 774 1395 773 1395 769 1391 768 1391 766 1389 765 1389 761 1385 760 1385 758 1383 757 1383 754 1380 753 1380 750 1377 749 1377 746 1374 745 1374 742 1371 741 1371 738 1368 737 1368 735 1366 734 1366 731 1363 730 1363 727 1360 726 1360 724 1358 723 1358 719 1354 718 1354 716 1352 715 1352 712 1349 711 1349 708 1346 707 1346 704 1343 703 1343 700 1340 699 1340 696 1337 695 1337 692 1334 691 1334 687 1330 686 1330 683 1327 682 1327 679 1324 678 1324 675 1321 674 1321 671 1318 670 1318 667 1315 666 1315 663 1312 662 1312 660 1310 659 1310 657 1308 656 1308 654 1306 653 1306 651 1304 650 1304 648 1302 647 1302 645 1300 644 1300 642 1298 641 1298 639 1296 638 1296 637 1295 636 1295 634 1293 633 1293 632 1292 631 1292 629 1290 628 1290 627 1289 626 1289 625 1288 624 1288 622 1286 621 1286 620 1285 619 1285 618 1284 617 1284 615 1282 614 1282 613 1281 612 1281 611 1280 610 1280 609 1279 608 1279 607 1278 606 1278 604 1276 603 1276 602 1275 601 1275 600 1274 599 1274 598 1273 597 1273 596 1272 595 1272 594 1271 593 1271 592 1270 591 1270 590 1269 589 1269 588 1268 587 1268 586 1267 584 1267 583 1266 582 1266 581 1265 580 1265 579 1264 578 1264 577 1263 576 1263 575 1262 573 1262 572 1261 571 1261 570 1260 569 1260 568 1259 566 1259 565 1258 564 1258 563 1257 561 1257 560 1256 559 1256 558 1255 556 1255 555 1254 554 1254 553 1253 551 1253 550 1252 548 1252 547 1251 546 1251 545 1250 543 1250 542 1249 540 1249 539 1248 537 1248 536 1247 534 1247 533 1246 531 1246 530 1245 528 1245 527 1244 525 1244 524 1243 522 1243 521 1242 518 1242 517 1241 515 1241 514 1240 511 1240 510 1239 508 1239 507 1238 504 1238 503 1237 501 1237 500 1236 497 1236 496 1235 493 1235 492 1234 489 1234 488 1233 485 1233 484 1232 480 1232 479 1231 475 1231 474 1230 470 1230 469 1229 465 1229 464 1228 460 1228 459 1227 454 1227 453 1226 447 1226 446 1225 440 1225 439 1224 431 1224 430 1223 422 1223 421 1222 410 1222 409 1221 394 1221 393 1220 369 1220 368 1219 " /><path stroke="blue" stroke-width="1" d="M2001 1012 2000 1013 1995 1013 1994 1014 1991 1014 1991 1016 1992 1016 1993 1017 1994 1017 1995 1018 1998 1018 1999 1019 2002 1019 2003 1020 2007 1020 2008 1021 2012 1021 2013 1022 2015 1022 2016 1023 2013 1026 2012 1026 2010 1028 2009 1028 2008 1029 2007 1029 2006 1030 2005 1030 2004 1031 2003 1031 2002 1032 2001 1032 2000 1033 1999 1033 1998 1034 1997 1034 1996 1035 1995 1035 1994 1036 1993 1036 1992 1037 1991 1037 1990 1038 1989 1038 1986 1041 1986 1042 1985 1043 1985 1046 1986 1047 1986 1048 1987 1049 1988 1049 1989 1050 1991 1050 1992 1051 1996 1051 1997 1052 1995 1054 1994 1054 1993 1055 1992 1055 1991 1056 1990 1056 1989 1057 1988 1057 1987 1058 1986 1058 1985 1059 1984 1059 1983 1060 1982 1060 1981 1061 1979 1061 1978 1062 1977 1062 1976 1063 1974 1063 1973 1064 1971 1064 1970 1065 1969 1065 1968 1066 1966 1066 1965 1067 1964 1067 1963 1068 1961 1068 1960 1069 1959 1069 1958 1070 1956 1070 1955 1071 1954 1071 1953 1072 1951 1072 1949 1074 1948 1074 1948 1075 1947 1076 1947 1077 1946 1078 1946 1079 1947 1080 1947 1081 1950 1084 1948 1086 1947 1086 1946 1087 1945 1087 1944 1088 1943 1088 1941 1090 1940 1090 1939 1091 1938 1091 1937 1092 1936 1092 1935 1093 1934 1093 1932 1095 1931 1095 1930 1096 1929 1096 1928 1097 1927 1097 1926 1098 1925 1098 1924 1099 1923 1099 1922 1100 1921 1100 1920 1101 1919 1101 1918 1102 1917 1102 1916 1103 1915 1103 1914 1104 1913 1104 1912 1105 1911 1105 1910 1106 1909 1106 1908 1107 1907 1107 1906 1108 1905 1108 1904 1109 1902 1109 1901 1110 1900 1110 1898 1112 1897 1112 1896 1113 1895 1113 1893 1115 1893 1121 1892 1122 1891 1122 1889 1124 1888 1124 1886 1126 1885 1126 1884 1127 1883 1127 1881 1129 1880 1129 1879 1130 1878 1130 1876 1132 1875 1132 1874 1133 1873 1133 1871 1135 1870 1135 1868 1137 1867 1137 1866 1138 1865 1138 1863 1140 1862 1140 1861 1141 1860 1141 1858 1143 1857 1143 1856 1144 1855 1144 1853 1146 1852 1146 1851 1147 1850 1147 1848 1149 1847 1149 1846 1150 1845 1150 1844 1151 1843 1151 1841 1153 1840 1153 1839 1154 1838 1154 1836 1156 1835 1156 1834 1157 1833 1157 1831 1159 1830 1159 1829 1160 1828 1160 1827 1161 1826 1161 1824 1163 1823 1163 1822 1164 1821 1164 1820 1165 1819 1165 1817 1167 1816 1167 1815 1168 1814 1168 1813 1169 1812 1169 1811 1170 1810 1170 1808 1172 1807 1172 1806 1173 1805 1173 1804 1174 1803 1174 1802 1175 1801 1175 1799 1177 1798 1177 1797 1178 1796 1178 1795 1179 1794 1179 1793 1180 1792 1180 1791 1181 1790 1181 1789 1182 1788 1182 1787 1183 1786 1183 1785 1184 1784 1184 1783 1185 1782 1185 1781 1186 1780 1186 1779 1187 1778 1187 1776 1189 1774 1189 1773 1190 1772 1190 1771 1191 1770 1191 1769 1192 1768 1192 1767 1193 1766 1193 1765 1194 1764 1194 1763 1195 1762 1195 1761 1196 1759 1196 1758 1197 1757 1197 1756 1198 1755 1198 1754 1199 1753 1199 1752 1200 1751 1200 1750 1201 1748 1201 1747 1202 1746 1202 1745 1203 1743 1203 1742 1204 1741 1204 1740 1205 1738 1205 1737 1206 1736 1206 1735 1207 1733 1207 1732 1208 1730 1208 1729 1209 1727 1209 1726 1210 1724 1210 1723 1211 1720 1211 1719 1212 1716 1212 1715 1213 1713 1213 1712 1214 1708 1214 1707 1215 1704 1215 1703 1216 1698 1216 1697 1217 1693 1217 1692 1218 1686 1218 1685 1219 1678 1219 1677 1220 1669 1220 1668 1221 1657 1221 1656 1222 1641 1222 1640 1223 1595 1223 1594 1222 1578 1222 1577 1221 1564 1221 1563 1220 1549 1220 1548 1219 1503 1219 1502 1220 1495 1220 1494 1221 1489 1221 1488 1222 1484 1222 1483 1223 1480 1223 1479 1224 1476 1224 1475 1225 1473 1225 1472 1226 1469 1226 1468 1227 1466 1227 1465 1228 1463 1228 1462 1229 1460 1229 1459 1230 1458 1230 1457 1231 1455 1231 1454 1232 1453 1232 1452 1233 1450 1233 1449 1234 1448 1234 1447 1235 1446 1235 1445 1236 1444 1236 1443 1237 1442 1237 1441 1238 1439 1238 1438 1239 1437 1239 1436 1240 1435 1240 1434 1241 1433 1241 1432 1242 1431 1242 1430 1243 1429 1243 1427 1245 1426 1245 1425 1246 1424 1246 1423 1247 1422 1247 1421 1248 1420 1248 1418 1250 1417 1250 1416 1251 1415 1251 1413 1253 1412 1253 1410 1255 1409 1255 1407 1257 1406 1257 1404 1259 1403 1259 1401 1261 1400 1261 1398 1263 1397 1263 1394 1266 1393 1266 1389 1270 1388 1270 1384 1274 1383 1274 1378 1279 1377 1279 1360 1296 1360 1297 1356 1301 1356 1302 1355 1303 1355 1304 1354 1305 1354 1307 1353 1308 1353 1311 1355 1313 1356 1312 1357 1312 1371 1298 1372 1298 1380 1290 1381 1290 1387 1284 1388 1284 1392 1280 1393 1280 1396 1277 1397 1277 1400 1274 1401 1274 1404 1271 1405 1271 1407 1269 1408 1269 1410 1267 1411 1267 1413 1265 1414 1265 1416 1263 1417 1263 1419 1261 1420 1261 1421 1260 1422 1260 1424 1258 1425 1258 1426 1257 1427 1257 1428 1256 1429 1256 1431 1254 1432 1254 1433 1253 1434 1253 1435 1252 1436 1252 1437 1251 1438 1251 1439 1250 1440 1250 1441 1249 1442 1249 1443 1248 1444 1248 1445 1247 1446 1247 1447 1246 1448 1246 1449 1245 1451 1245 1452 1244 1453 1244 1454 1243 1455 1243 1456 1242 1458 1242 1459 1241 1460 1241 1461 1240 1463 1240 1464 1239 1466 1239 1467 1238 1468 1238 1469 1237 1472 1237 1473 1236 1475 1236 1476 1235 1478 1235 1479 1234 1482 1234 1483 1233 1486 1233 1487 1232 1491 1232 1492 1231 1498 1231 1499 1230 1507 1230 1508 1229 1543 1229 1544 1230 1560 1230 1561 1231 1575 1231 1576 1232 1592 1232 1593 1233 1640 1233 1641 1232 1657 1232 1658 1231 1669 1231 1670 1230 1678 1230 1679 1229 1686 1229 1687 1228 1693 1228 1694 1227 1699 1227 1700 1226 1704 1226 1705 1225 1709 1225 1710 1224 1713 1224 1714 1223 1717 1223 1718 1222 1721 1222 1722 1221 1724 1221 1725 1220 1728 1220 1729 1219 1731 1219 1732 1218 1734 1218 1735 1217 1737 1217 1738 1216 1739 1216 1740 1215 1742 1215 1743 1214 1744 1214 1745 1213 1747 1213 1748 1212 1749 1212 1750 1211 1752 1211 1753 1210 1754 1210 1755 1209 1756 1209 1757 1208 1759 1208 1760 1207 1761 1207 1762 1206 1763 1206 1764 1205 1765 1205 1766 1204 1767 1204 1768 1203 1770 1203 1771 1202 1772 1202 1774 1200 1776 1200 1777 1199 1778 1199 1779 1198 1780 1198 1781 1197 1782 1197 1783 1196 1784 1196 1785 1195 1786 1195 1787 1194 1788 1194 1789 1193 1790 1193 1791 1192 1792 1192 1794 1190 1795 1190 1796 1189 1797 1189 1798 1188 1799 1188 1800 1187 1801 1187 1802 1186 1803 1186 1804 1185 1805 1185 1806 1184 1807 1184 1809 1182 1810 1182 1811 1181 1812 1181 1813 1180 1814 1180 1816 1178 1817 1178 1818 1177 1819 1177 1820 1176 1821 1176 1822 1175 1823 1175 1825 1173 1826 1173 1827 1172 1828 1172 1829 1171 1830 1171 1832 1169 1833 1169 1834 1168 1835 1168 1837 1166 1838 1166 1839 1165 1840 1165 1842 1163 1843 1163 1844 1162 1845 1162 1847 1160 1848 1160 1849 1159 1850 1159 1852 1157 1853 1157 1854 1156 1855 1156 1856 1155 1857 1155 1859 1153 1860 1153 1862 1151 1863 1151 1864 1150 1865 1150 1867 1148 1868 1148 1869 1147 1870 1147 1872 1145 1873 1145 1874 1144 1875 1144 1877 1142 1878 1142 1879 1141 1880 1141 1882 1139 1883 1139 1884 1138 1885 1138 1887 1136 1888 1136 1890 1134 1891 1134 1892 1133 1893 1133 1895 1131 1896 1131 1898 1129 1899 1129 1901 1127 1902 1127 1907 1122 1907 1120 1908 1119 1908 1118 1910 1116 1911 1116 1912 1115 1913 1115 1915 1113 1916 1113 1917 1112 1919 1112 1921 1110 1923 1110 1925 1108 1926 1108 1927 1107 1928 1107 1929 1106 1930 1106 1931 1105 1932 1105 1933 1104 1934 1104 1935 1103 1936 1103 1937 1102 1938 1102 1939 1101 1940 1101 1941 1100 1942 1100 1943 1099 1944 1099 1946 1097 1947 1097 1948 1096 1949 1096 1950 1095 1951 1095 1953 1093 1954 1093 1956 1091 1957 1091 1960 1088 1961 1088 1961 1087 1963 1085 1963 1084 1964 1083 1964 1080 1963 1079 1963 1078 1964 1077 1965 1077 1966 1076 1968 1076 1969 1075 1971 1075 1972 1074 1973 1074 1974 1073 1976 1073 1977 1072 1978 1072 1979 1071 1981 1071 1982 1070 1983 1070 1984 1069 1986 1069 1987 1068 1988 1068 1989 1067 1990 1067 1991 1066 1993 1066 1995 1064 1996 1064 1997 1063 1998 1063 1999 1062 2000 1062 2001 1061 2002 1061 2003 1060 2004 1060 2010 1054 2010 1048 2009 1047 2009 1046 2008 1046 2006 1044 2005 1044 2004 1043 2004 1042 2005 1041 2006 1041 2007 1040 2008 1040 2009 1039 2010 1039 2011 1038 2012 1038 2014 1036 2015 1036 2016 1035 2017 1035 2018 1034 2019 1034 2021 1032 2022 1032 2025 1029 2025 1028 2026 1027 2026 1026 2027 1025 2027 1020 2026 1019 2026 1018 2024 1016 2023 1016 2022 1015 2021 1015 2020 1014 2018 1014 2017 1013 2006 1013 2005 1012 " /><path stroke="orange" stroke-width="5" d="M1983 980 1982 981 1812 981 1811 982 1782 982 1781 983 1760 983 1759 984 1744 984 1743 985 1730 985 1729 986 1718 986 1717 987 1708 987 1707 988 1698 988 1697 989 1689 989 1688 990 1680 990 1679 991 1673 991 1672 992 1666 992 1665 993 1659 993 1658 994 1652 994 1651 995 1647 995 1646 996 1641 996 1640 997 1636 997 1635 998 1631 998 1630 999 1627 999 1626 1000 1622 1000 1621 1001 1617 1001 1616 1002 1614 1002 1613 1003 1609 1003 1608 1004 1605 1004 1604 1005 1601 1005 1600 1006 1598 1006 1597 1007 1594 1007 1593 1008 1591 1008 1590 1009 1587 1009 1586 1010 1583 1010 1582 1011 1580 1011 1579 1012 1577 1012 1576 1013 1574 1013 1573 1014 1571 1014 1570 1015 1568 1015 1567 1016 1565 1016 1564 1017 1562 1017 1561 1018 1559 1018 1558 1019 1556 1019 1555 1020 1553 1020 1552 1021 1551 1021 1550 1022 1548 1022 1547 1023 1546 1023 1545 1024 1543 1024 1542 1025 1540 1025 1539 1026 1538 1026 1537 1027 1535 1027 1534 1028 1533 1028 1532 1029 1530 1029 1529 1030 1528 1030 1527 1031 1525 1031 1524 1032 1523 1032 1522 1033 1520 1033 1519 1034 1518 1034 1517 1035 1516 1035 1515 1036 1513 1036 1512 1037 1511 1037 1510 1038 1509 1038 1508 1039 1507 1039 1506 1040 1504 1040 1503 1041 1502 1041 1501 1042 1500 1042 1499 1043 1498 1043 1497 1044 1495 1044 1494 1045 1493 1045 1492 1046 1491 1046 1490 1047 1489 1047 1488 1048 1487 1048 1486 1049 1484 1049 1483 1050 1482 1050 1481 1051 1480 1051 1479 1052 1478 1052 1477 1053 1476 1053 1475 1054 1474 1054 1473 1055 1472 1055 1471 1056 1470 1056 1469 1057 1468 1057 1467 1058 1466 1058 1465 1059 1463 1059 1462 1060 1461 1060 1460 1061 1459 1061 1458 1062 1457 1062 1456 1063 1455 1063 1454 1064 1453 1064 1452 1065 1451 1065 1450 1066 1449 1066 1448 1067 1447 1067 1446 1068 1445 1068 1444 1069 1443 1069 1442 1070 1441 1070 1440 1071 1439 1071 1438 1072 1437 1072 1436 1073 1435 1073 1434 1074 1433 1074 1431 1076 1430 1076 1429 1077 1428 1077 1427 1078 1426 1078 1425 1079 1424 1079 1423 1080 1422 1080 1421 1081 1420 1081 1419 1082 1418 1082 1417 1083 1416 1083 1415 1084 1414 1084 1412 1086 1411 1086 1410 1087 1409 1087 1408 1088 1407 1088 1406 1089 1405 1089 1404 1090 1403 1090 1402 1091 1401 1091 1399 1093 1398 1093 1397 1094 1396 1094 1395 1095 1394 1095 1393 1096 1392 1096 1390 1098 1389 1098 1388 1099 1387 1099 1386 1100 1385 1100 1383 1102 1382 1102 1381 1103 1380 1103 1379 1104 1378 1104 1376 1106 1375 1106 1374 1107 1373 1107 1371 1109 1370 1109 1369 1110 1368 1110 1367 1111 1366 1111 1364 1113 1363 1113 1361 1115 1360 1115 1359 1116 1358 1116 1356 1118 1355 1118 1354 1119 1353 1119 1351 1121 1350 1121 1348 1123 1347 1123 1345 1125 1344 1125 1343 1126 1342 1126 1340 1128 1339 1128 1337 1130 1336 1130 1334 1132 1333 1132 1332 1133 1331 1133 1329 1135 1328 1135 1325 1138 1324 1138 1323 1139 1322 1139 1320 1141 1319 1141 1316 1144 1315 1144 1313 1146 1312 1146 1310 1148 1309 1148 1307 1150 1306 1150 1304 1152 1303 1152 1300 1155 1299 1155 1297 1157 1296 1157 1294 1159 1293 1159 1290 1162 1289 1162 1286 1165 1285 1165 1282 1168 1281 1168 1277 1172 1276 1172 1273 1175 1272 1175 1268 1179 1267 1179 1263 1183 1262 1183 1256 1189 1255 1189 1249 1195 1248 1195 1240 1203 1239 1203 1229 1213 1228 1213 1197 1244 1197 1245 1187 1255 1187 1256 1180 1263 1180 1264 1175 1269 1175 1270 1170 1275 1170 1276 1165 1281 1165 1282 1161 1286 1161 1287 1157 1291 1157 1292 1153 1296 1153 1297 1148 1302 1148 1303 1145 1306 1145 1307 1141 1311 1141 1312 1137 1316 1137 1317 1133 1321 1133 1322 1130 1325 1130 1326 1126 1330 1126 1331 1122 1335 1122 1336 1118 1340 1118 1341 1114 1345 1114 1346 1111 1349 1111 1350 1108 1353 1108 1354 1104 1358 1104 1359 1102 1361 1102 1362 1099 1365 1099 1366 1097 1368 1097 1369 1094 1372 1094 1373 1092 1375 1092 1376 1089 1379 1089 1380 1087 1382 1087 1383 1084 1386 1084 1387 1082 1389 1082 1390 1080 1392 1080 1393 1077 1396 1077 1397 1074 1400 1074 1401 1071 1404 1071 1405 1069 1407 1069 1408 1066 1411 1066 1412 1063 1415 1063 1416 1061 1418 1061 1419 1058 1422 1058 1423 1056 1425 1056 1426 1054 1428 1054 1429 1053 1430 1053 1431 1052 1432 1052 1433 1051 1434 1051 1437 1053 1439 1055 1439 1056 1438 1057 1438 1067 1428 1067 1427 1071 1423 1071 1422 1074 1419 1074 1418 1077 1415 1077 1414 1080 1411 1080 1410 1083 1407 1083 1406 1085 1404 1085 1403 1088 1400 1088 1399 1090 1397 1090 1396 1093 1393 1093 1392 1096 1389 1096 1388 1098 1386 1098 1385 1100 1383 1100 1382 1103 1379 1103 1378 1106 1375 1106 1374 1107 1373 1107 1372 1110 1369 1110 1368 1113 1365 1113 1364 1116 1361 1116 1360 1119 1357 1119 1356 1123 1352 1123 1351 1126 1348 1126 1347 1130 1343 1130 1342 1134 1338 1134 1337 1137 1334 1137 1333 1141 1329 1141 1328 1144 1325 1144 1324 1148 1320 1148 1319 1152 1315 1152 1314 1156 1310 1156 1309 1160 1305 1160 1304 1163 1301 1163 1300 1167 1296 1167 1295 1171 1291 1171 1290 1175 1286 1175 1285 1180 1280 1180 1279 1185 1274 1185 1273 1192 1266 1192 1265 1198 1259 1198 1258 1213 1243 1213 1242 1228 1227 1229 1227 1242 1214 1243 1214 1243 1213 1244 1212 1245 1212 1252 1205 1253 1205 1259 1199 1260 1199 1266 1193 1267 1193 1271 1189 1272 1189 1277 1184 1278 1184 1281 1181 1282 1181 1285 1178 1286 1178 1290 1174 1291 1174 1293 1172 1294 1172 1297 1169 1298 1169 1300 1167 1301 1167 1304 1164 1305 1164 1307 1162 1308 1162 1311 1159 1312 1159 1314 1157 1315 1157 1317 1155 1318 1155 1320 1153 1321 1153 1323 1151 1324 1151 1326 1149 1327 1149 1329 1147 1330 1147 1332 1145 1333 1145 1335 1143 1336 1143 1338 1141 1339 1141 1341 1139 1342 1139 1344 1137 1345 1137 1347 1135 1348 1135 1349 1134 1350 1134 1352 1132 1353 1132 1355 1130 1356 1130 1357 1129 1358 1129 1360 1127 1361 1127 1363 1125 1364 1125 1365 1124 1366 1124 1368 1122 1369 1122 1370 1121 1371 1121 1373 1119 1374 1119 1375 1118 1376 1118 1378 1116 1379 1116 1380 1115 1381 1115 1382 1114 1383 1114 1385 1112 1386 1112 1387 1111 1388 1111 1390 1109 1391 1109 1392 1108 1393 1108 1394 1107 1395 1107 1397 1105 1398 1105 1399 1104 1400 1104 1401 1103 1402 1103 1404 1101 1405 1101 1406 1100 1407 1100 1408 1099 1409 1099 1410 1098 1411 1098 1413 1096 1414 1096 1415 1095 1416 1095 1417 1094 1418 1094 1419 1093 1420 1093 1421 1092 1422 1092 1423 1091 1424 1091 1426 1089 1427 1089 1428 1088 1429 1088 1430 1087 1431 1087 1432 1086 1433 1086 1434 1085 1435 1085 1436 1084 1437 1084 1438 1083 1439 1083 1440 1082 1441 1082 1442 1081 1443 1081 1444 1080 1445 1080 1446 1079 1447 1079 1449 1077 1451 1077 1453 1075 1454 1075 1455 1074 1456 1074 1457 1073 1458 1073 1459 1072 1461 1072 1463 1070 1464 1070 1465 1069 1466 1069 1467 1068 1469 1068 1471 1066 1473 1066 1474 1065 1475 1065 1476 1064 1477 1064 1478 1063 1479 1063 1480 1062 1481 1062 1482 1061 1483 1061 1484 1060 1485 1060 1486 1059 1487 1059 1488 1058 1490 1058 1491 1057 1492 1057 1493 1056 1494 1056 1495 1055 1496 1055 1497 1054 1498 1054 1499 1053 1500 1053 1501 1052 1503 1052 1504 1051 1505 1051 1506 1050 1507 1050 1508 1049 1509 1049 1510 1048 1512 1048 1513 1047 1514 1047 1515 1046 1516 1046 1517 1045 1519 1045 1520 1044 1521 1044 1522 1043 1523 1043 1524 1042 1526 1042 1527 1041 1528 1041 1529 1040 1531 1040 1532 1039 1533 1039 1534 1038 1535 1038 1536 1037 1538 1037 1539 1036 1540 1036 1541 1035 1543 1035 1544 1034 1546 1034 1547 1033 1548 1033 1549 1032 1551 1032 1552 1031 1554 1031 1555 1030 1556 1030 1557 1029 1559 1029 1560 1028 1562 1028 1563 1027 1565 1027 1566 1026 1568 1026 1569 1025 1571 1025 1572 1024 1574 1024 1575 1023 1577 1023 1578 1022 1580 1022 1581 1021 1584 1021 1585 1020 1587 1020 1588 1019 1591 1019 1592 1018 1594 1018 1595 1017 1597 1017 1598 1016 1601 1016 1602 1015 1605 1015 1606 1014 1609 1014 1610 1013 1613 1013 1614 1012 1617 1012 1618 1011 1622 1011 1623 1010 1626 1010 1627 1009 1631 1009 1632 1008 1635 1008 1636 1007 1641 1007 1642 1006 1647 1006 1648 1005 1653 1005 1654 1004 1659 1004 1660 1003 1664 1003 1665 1002 1671 1002 1672 1001 1679 1001 1680 1000 1686 1000 1687 999 1694 999 1695 998 1703 998 1704 997 1712 997 1713 996 1722 996 1723 995 1734 995 1735 994 1747 994 1748 993 1761 993 1762 992 1779 992 1780 991 1803 991 1804 990 1836 990 1837 989 1839 989 1840 990 1841 989 1981 989 1982 988 1993 988 1994 987 1999 987 2000 986 2002 986 2003 985 2004 985 2006 983 2006 982 2005 981 2003 981 2002 980 " /></svg>